<svg xmlns="http://www.w3.org/2000/svg" viewBox="-8 -8 16 16">
  <g fill="#A05540" stroke="none">

    <!-- Center dot -->
    <circle r="1.4"/>

    <!-- Inner ring -->
    <circle r="3" fill="none" stroke="#A05540" stroke-width="0.5"/>

    <!-- Inner primary petals (8x, pointed leaf shape) -->
    <path d="M 0 -3.3 C 1.3 -4.2 1.3 -6.5 0 -7.5 C -1.3 -6.5 -1.3 -4.2 0 -3.3 Z"/>
    <g transform="rotate(45)"> <path d="M 0 -3.3 C 1.3 -4.2 1.3 -6.5 0 -7.5 C -1.3 -6.5 -1.3 -4.2 0 -3.3 Z"/> </g>
    <g transform="rotate(90)"> <path d="M 0 -3.3 C 1.3 -4.2 1.3 -6.5 0 -7.5 C -1.3 -6.5 -1.3 -4.2 0 -3.3 Z"/> </g>
    <g transform="rotate(135)"><path d="M 0 -3.3 C 1.3 -4.2 1.3 -6.5 0 -7.5 C -1.3 -6.5 -1.3 -4.2 0 -3.3 Z"/> </g>
    <g transform="rotate(180)"><path d="M 0 -3.3 C 1.3 -4.2 1.3 -6.5 0 -7.5 C -1.3 -6.5 -1.3 -4.2 0 -3.3 Z"/> </g>
    <g transform="rotate(225)"><path d="M 0 -3.3 C 1.3 -4.2 1.3 -6.5 0 -7.5 C -1.3 -6.5 -1.3 -4.2 0 -3.3 Z"/> </g>
    <g transform="rotate(270)"><path d="M 0 -3.3 C 1.3 -4.2 1.3 -6.5 0 -7.5 C -1.3 -6.5 -1.3 -4.2 0 -3.3 Z"/> </g>
    <g transform="rotate(315)"><path d="M 0 -3.3 C 1.3 -4.2 1.3 -6.5 0 -7.5 C -1.3 -6.5 -1.3 -4.2 0 -3.3 Z"/> </g>

    <!-- Inner secondary petals (8x at 22.5°, shorter) -->
    <g transform="rotate(22.5)"> <path d="M 0 -3.6 C 0.7 -4.3 0.7 -5.8 0 -6.4 C -0.7 -5.8 -0.7 -4.3 0 -3.6 Z"/> </g>
    <g transform="rotate(67.5)"> <path d="M 0 -3.6 C 0.7 -4.3 0.7 -5.8 0 -6.4 C -0.7 -5.8 -0.7 -4.3 0 -3.6 Z"/> </g>
    <g transform="rotate(112.5)"><path d="M 0 -3.6 C 0.7 -4.3 0.7 -5.8 0 -6.4 C -0.7 -5.8 -0.7 -4.3 0 -3.6 Z"/> </g>
    <g transform="rotate(157.5)"><path d="M 0 -3.6 C 0.7 -4.3 0.7 -5.8 0 -6.4 C -0.7 -5.8 -0.7 -4.3 0 -3.6 Z"/> </g>
    <g transform="rotate(202.5)"><path d="M 0 -3.6 C 0.7 -4.3 0.7 -5.8 0 -6.4 C -0.7 -5.8 -0.7 -4.3 0 -3.6 Z"/> </g>
    <g transform="rotate(247.5)"><path d="M 0 -3.6 C 0.7 -4.3 0.7 -5.8 0 -6.4 C -0.7 -5.8 -0.7 -4.3 0 -3.6 Z"/> </g>
    <g transform="rotate(292.5)"><path d="M 0 -3.6 C 0.7 -4.3 0.7 -5.8 0 -6.4 C -0.7 -5.8 -0.7 -4.3 0 -3.6 Z"/> </g>
    <g transform="rotate(337.5)"><path d="M 0 -3.6 C 0.7 -4.3 0.7 -5.8 0 -6.4 C -0.7 -5.8 -0.7 -4.3 0 -3.6 Z"/> </g>

  </g>
</svg>
